<svg width="42" height="24" viewBox="0 0 42 24" fill="none" xmlns="http://www.w3.org/2000/svg">
<g clip-path="url(#clip0_512_607)">
<path d="M42 10.6591H39.2914V7.81036H36.7551V10.6591H34.0485V13.3306H36.7551V16.1793H39.2914V13.3306H42V10.6591Z" fill="#373753"/>
<path d="M10.1196 7.92373L15.5446 0H2.60676V2.75187H10.429L5.36433 10.2654H7.67927C10.5563 10.2654 12.8967 12.7287 12.8967 15.7568C12.8967 18.7848 10.5563 21.2481 7.67927 21.2481C5.15673 21.2481 3.04547 19.3538 2.56563 16.8451L0 17.3728C0.714852 21.1471 3.88762 24 7.67927 24C11.9978 24 15.5113 20.302 15.5113 15.7568C15.5113 12.1082 13.2473 9.00593 10.1196 7.92373Z" fill="#373753"/>
<path d="M34.0231 18.8673C32.47 20.3329 30.4194 21.2275 28.173 21.2275C23.3375 21.2275 19.4009 17.0863 19.4009 11.9948C19.4009 6.90337 23.3355 2.76217 28.173 2.76217C30.4116 2.76217 32.4563 3.6506 34.0074 5.10795L35.7348 3.03632C33.649 1.08219 30.9893 0.0123596 28.173 0.0123596C25.1315 0.0123596 22.2721 1.25946 20.1216 3.52279C17.9712 5.78407 16.7883 8.7936 16.7883 11.9948C16.7883 13.9799 17.2446 15.8928 18.1044 17.5975L16.9743 21.4604L20.8894 21.2069C22.9301 23.0023 25.4801 23.9794 28.173 23.9794C30.9854 23.9794 33.6431 22.9137 35.7269 20.9637L34.0231 18.8673Z" fill="#373753"/>
</g>
<defs>
<clipPath id="clip0_512_607">
<rect width="42" height="24" fill="white"/>
</clipPath>
</defs>
</svg>
